PathFileType	4	(X/Y/Z)	/Users/itak/Documents/Research/Walk-IL/dataset/trc/00244_00009.trc
DataRate	CameraRate	NumFrames	NumMarkers	Units	OrigDataRate	OrigDataStartFrame	OrigNumFrames
100.000000	100.000000	4	53	mm	100.000000	643	858
Frame#	Time	RPSI			LPSI			L3			STRN			T10			C7			CLAV			RBAK			LBAK			LSHO			LUPA			LAEL			LAOL			LWTS			LWPS			LFRA			LIFD			LHPS			LHTS			RSHO			RUPA			RAEL			RAOL			RWTS			RWPS			RFRA			RIFD			RHTS			RHPS			RBHD			LFHD			RFHD			LBHD			LHIP			RHIP			RASI			LASI			LKNE			LTHI			LANK			LTIP			LTOE			LMT1			LMT5			LHEE			RKNE			RTHI			RANK			RTIP			RTOE			RMT1			RMT5			RHEE			
		X1	Y1	Z1	X2	Y2	Z2	X3	Y3	Z3	X4	Y4	Z4	X5	Y5	Z5	X6	Y6	Z6	X7	Y7	Z7	X8	Y8	Z8	X9	Y9	Z9	X10	Y10	Z10	X11	Y11	Z11	X12	Y12	Z12	X13	Y13	Z13	X14	Y14	Z14	X15	Y15	Z15	X16	Y16	Z16	X17	Y17	Z17	X18	Y18	Z18	X19	Y19	Z19	X20	Y20	Z20	X21	Y21	Z21	X22	Y22	Z22	X23	Y23	Z23	X24	Y24	Z24	X25	Y25	Z25	X26	Y26	Z26	X27	Y27	Z27	X28	Y28	Z28	X29	Y29	Z29	X30	Y30	Z30	X31	Y31	Z31	X32	Y32	Z32	X33	Y33	Z33	X34	Y34	Z34	X35	Y35	Z35	X36	Y36	Z36	X37	Y37	Z37	X38	Y38	Z38	X39	Y39	Z39	X40	Y40	Z40	X41	Y41	Z41	X42	Y42	Z42	X43	Y43	Z43	X44	Y44	Z44	X45	Y45	Z45	X46	Y46	Z46	X47	Y47	Z47	X48	Y48	Z48	X49	Y49	Z49	X50	Y50	Z50	X51	Y51	Z51	X52	Y52	Z52	X53	Y53	Z53	

644	6.43	505.9708251953125	1021.729248046875	-150.6263122558594	625.1404418945312	1027.09228515625	-173.9364013671875	572.18017578125	1111.093505859375	-166.9500885009766	643.0380859375	1293.677734375	78.48981475830078	554.5704345703125	1235.169677734375	-163.1915435791016	569.114990234375	1496.494018554688	-96.89179229736328	629.8673706054688	1412.004272460938	57.16156387329102	478.4434204101562	1356.828491210938	-145.4725036621094	666.824462890625	1461.770141601562	-154.8256683349609	750.824462890625	1465.188354492188	-91.31938934326172	818.291259765625	1353.405029296875	-155.4136199951172	857.4716186523438	1146.195922851562	-173.3718872070312	786.714111328125	1131.304565429688	-222.7236785888672	847.5755004882812	906.4798583984375	-81.16562652587891	910.4371337890625	894.4141845703125	-135.7400970458984	882.6839599609375	1038.9443359375	-164.5930633544922	864.1312866210938	711.1325073242188	-89.42171478271484	916.6861572265625	805.8004760742188	-123.2358703613281	883.3972778320312	805.5740356445312	-63.27347564697266	432.7195434570312	1450.349487304688	16.33626747131348	362.841064453125	1384.62841796875	18.2426586151123	322.414794921875	1103.86474609375	-6.349571228027344	400.8336486816406	1099.029541015625	-62.62491607666016	412.7826232910156	901.41357421875	124.4630279541016	337.8067321777344	880.9774169921875	92.08529663085938	321.3970642089844	1035.703735351562	24.87255668640137	432.7688903808594	711.0751953125	150.7577819824219	415.0462646484375	784.2011108398438	175.1000366210938	352.7573852539062	778.1349487304688	138.3988189697266	525.6732177734375	1646.549682617188	-39.21894073486328	681.848876953125	1701.302856445312	117.6027679443359	588.4525146484375	1693.713256835938	151.9515533447266	665.5675659179688	1663.64990234375	-42.13549423217773	784.2371215820312	974.8439331054688	-93.57457733154297	417.8455200195312	981.5248413085938	-34.52164459228516	476.1319274902344	1030.686645507812	53.43515777587891	750.6363525390625	1017.59326171875	9.022937774658203	772.2870483398438	531.0154418945312	129.748779296875	801.6712036132812	658.0592041015625	61.74003601074219	819.9906616210938	45.19324493408203	190.2573547363281	806.0742797851562	305.6239929199219	154.5994415283203	700.0805053710938	107.3186645507812	358.6929626464844	680.872314453125	80.89329528808594	286.0562438964844	791.7618408203125	70.96083831787109	310.87451171875	793.9962768554688	37.5488166809082	115.2236938476562	503.7291870117188	491.53369140625	-36.00458908081055	444.7483215332031	753.1566162109375	17.65417289733887	516.64111328125	32.42059326171875	-197.6090545654297	533.3560791015625	371.34619140625	-55.55669021606445	646.3449096679688	37.67515563964844	-24.06798553466797	660.8220825195312	32.54041290283203	-94.19618225097656	540.3157348632812	35.77148056030273	-86.13346099853516	541.6683349609375	29.48138618469238	-278.6002197265625	
645	6.44	510.1575622558594	1020.682922363281	-145.6263275146484	629.6925048828125	1026.20703125	-166.9808807373047	576.4342651367188	1110.162353515625	-160.7777099609375	643.5146484375	1292.994018554688	85.15851593017578	558.4520263671875	1234.275512695312	-157.8655242919922	572.0606079101562	1495.607543945312	-91.52691650390625	630.6116333007812	1411.286865234375	63.42376327514648	481.9907531738281	1355.967529296875	-141.1683502197266	670.51904296875	1460.716796875	-148.0532531738281	753.6550903320312	1464.19873046875	-83.45807647705078	821.9352416992188	1352.295654296875	-146.4763488769531	861.4055786132812	1145.154541015625	-163.7688751220703	791.2210693359375	1130.124267578125	-213.8703155517578	850.8196411132812	905.294189453125	-71.93289184570312	914.4114990234375	893.4718017578125	-125.7264556884766	886.70458984375	1037.9423828125	-154.7476959228516	867.9299926757812	709.9942016601562	-80.34963989257812	920.6116333007812	804.8314819335938	-113.3813781738281	886.619873046875	804.4006958007812	-53.83143615722656	434.1081848144531	1449.730102539062	19.91350555419922	364.2065734863281	1384.097412109375	20.90268898010254	323.4150695800781	1103.464721679688	-4.148901462554932	402.5178833007812	1098.470458984375	-59.4685173034668	411.5898132324219	900.650146484375	127.6026763916016	336.958740234375	880.4583740234375	94.25897216796875	321.8397216796875	1035.297485351562	27.00691795349121	430.7682800292969	710.2275390625	153.8917388916016	412.9176635742188	783.3529052734375	178.1262359619141	351.0630798339844	777.4944458007812	140.6091918945312	528.1235961914062	1645.89404296875	-34.21432876586914	682.0526733398438	1700.206176757812	124.865478515625	588.1427001953125	1692.727294921875	157.8648986816406	668.0025024414062	1662.81982421875	-35.13163375854492	787.4747314453125	974.3265380859375	-83.95314788818359	420.6930236816406	980.4990844726562	-30.83671951293945	476.7329711914062	1029.95556640625	58.14169311523438	752.1199340820312	1017.126037597656	18.0197639465332	772.0918579101562	530.2034912109375	137.9188385009766	802.8753662109375	657.1634521484375	70.63913726806641	817.4862670898438	44.49165725708008	203.0446929931641	804.9739379882812	304.8810729980469	164.97265625	694.1181030273438	108.5252380371094	368.3956298828125	676.298583984375	81.51571655273438	295.4012451171875	786.5226440429688	71.20738220214844	322.8156127929688	793.1741943359375	36.37045669555664	127.4012451171875	505.0552062988281	490.65771484375	-32.58832550048828	446.0238037109375	752.1565551757812	21.49636459350586	516.7783203125	32.71259689331055	-197.6249389648438	534.4998779296875	370.4267578125	-52.85298919677734	646.2160034179688	37.55860900878906	-23.83553314208984	660.8143920898438	32.4912109375	-94.007080078125	540.1292114257812	35.68328475952148	-86.11956024169922	541.8377685546875	30.07510375976562	-278.6248779296875	
646	6.45	514.4067993164062	1019.608215332031	-140.4740447998047	634.2810668945312	1025.303344726562	-159.8591156005859	580.7318115234375	1109.154907226562	-154.4410095214844	643.9589233398438	1292.301391601562	91.90065765380859	562.4126586914062	1233.310180664062	-152.4524078369141	575.0398559570312	1494.658935546875	-86.14188385009766	631.2874145507812	1410.551635742188	69.7060546875	485.620849609375	1355.029663085938	-136.8358001708984	674.2423706054688	1459.596069335938	-141.1971893310547	756.4807739257812	1463.158081054688	-75.50411987304688	825.5606079101562	1351.122802734375	-137.4077301025391	865.2748413085938	1144.045166015625	-154.0150604248047	795.6765747070312	1128.882934570312	-204.8669128417969	853.9733276367188	904.0391235351562	-62.56307601928711	918.2989501953125	892.4588623046875	-115.5652236938477	890.6489868164062	1036.868896484375	-144.7558288574219	871.6686401367188	708.7871704101562	-71.13006591796875	924.4815063476562	803.7947998046875	-103.3613052368164	889.7623901367188	803.153076171875	-44.25308990478516	435.4919738769531	1449.0712890625	23.44411849975586	365.5896301269531	1383.537719726562	23.47000694274902	324.4821166992188	1103.037231445312	-1.998660445213318	404.2129516601562	1097.870239257812	-56.35326385498047	410.3677062988281	899.900146484375	130.730224609375	336.091064453125	879.9285888671875	96.39099884033203	322.307373046875	1034.858764648438	29.07890892028809	428.736328125	709.4026489257812	157.0628509521484	410.7508239746094	782.536376953125	181.1615447998047	349.3451843261719	776.8699951171875	142.8112335205078	530.5946044921875	1645.213256835938	-29.20383834838867	682.1692504882812	1699.070434570312	132.1692657470703	587.7496337890625	1691.704833984375	163.7706298828125	670.4527587890625	1661.9619140625	-28.09124565124512	790.6571044921875	973.7283325195312	-74.20918273925781	423.8828735351562	979.4258422851562	-26.98431968688965	477.2879333496094	1029.210693359375	62.95667266845703	753.5997314453125	1016.595581054688	27.13476371765137	771.7330322265625	529.295654296875	146.0858917236328	803.6840209960938	656.2013549804688	79.63947296142578	814.9260864257812	43.41889572143555	213.6148376464844	803.7420654296875	303.8365478515625	174.3629760742188	688.9788818359375	108.7777633666992	376.5682983398438	672.1925659179688	81.42505645751953	303.2837829589844	781.8090209960938	70.66230773925781	332.6849365234375	791.927734375	35.12739181518555	137.5041198730469	506.4583129882812	489.7592468261719	-29.00396347045898	447.37255859375	751.1348266601562	25.42249870300293	516.93408203125	33.06946182250977	-197.6564178466797	535.698486328125	369.4726257324219	-49.97571563720703	646.076904296875	37.43425750732422	-23.59941864013672	660.78662109375	32.45690155029297	-93.81684875488281	539.9782104492188	35.58429336547852	-86.10547637939453	542.0609741210938	30.77053833007812	-278.6623229980469	
647	6.46	518.7154541015625	1018.518981933594	-135.1547546386719	638.8927612304688	1024.3857421875	-152.5785522460938	585.06201171875	1108.072631835938	-147.9495391845703	644.3585205078125	1291.601684570312	98.71244049072266	566.4540405273438	1232.26513671875	-146.9290924072266	578.0552368164062	1493.651977539062	-80.73064422607422	631.9071044921875	1409.8017578125	76.01808929443359	489.3340148925781	1354.01025390625	-132.4677124023438	677.9915771484375	1458.415283203125	-134.2573699951172	759.3002319335938	1462.070556640625	-67.45441436767578	829.16455078125	1349.895141601562	-128.2098541259766	869.0872802734375	1142.872924804688	-144.1120758056641	800.0938110351562	1127.591186523438	-195.7272644042969	857.0345458984375	902.7283325195312	-53.04435729980469	922.0935668945312	891.3812255859375	-105.2459716796875	894.5161743164062	1035.730346679688	-134.6148681640625	875.3092651367188	707.5189819335938	-61.75770950317383	928.2776489257812	802.6966552734375	-93.16273498535156	892.838623046875	801.84912109375	-34.50479507446289	436.8767700195312	1448.36083984375	26.92941093444824	366.9979248046875	1382.939208984375	25.94879913330078	325.6210632324219	1102.573120117188	0.1041929200291634	405.9451599121094	1097.2158203125	-53.25844192504883	409.1080932617188	899.146484375	133.8477783203125	335.2018127441406	879.3743286132812	98.48004913330078	322.8124694824219	1034.373657226562	31.09458351135254	426.6639099121094	708.5838623046875	160.2774505615234	408.5372009277344	781.7365112304688	184.2078399658203	347.5999145507812	776.2487182617188	145.0086517333984	533.0787353515625	1644.51318359375	-24.1945915222168	682.1947021484375	1697.906860351562	139.5032653808594	587.2738647460938	1690.655395507812	169.6588897705078	672.9046630859375	1661.077270507812	-21.00928688049316	793.77783203125	973.0330200195312	-64.36358642578125	427.2462768554688	978.3187866210938	-22.98065757751465	477.8580017089844	1028.450805664062	67.870849609375	755.0757446289062	1015.991943359375	36.34701919555664	771.2247924804688	528.2828369140625	154.2455291748047	804.0681762695312	655.1673583984375	88.71161651611328	812.4365844726562	41.99142456054688	222.0802764892578	802.4002685546875	302.4744262695312	182.8156890869141	684.5543823242188	107.970588684082	383.2838745117188	668.5479125976562	80.54433441162109	309.7487182617188	777.6290893554688	69.28060913085938	340.6116943359375	790.4215087890625	33.85998916625977	145.6007995605469	507.8995056152344	488.8506774902344	-25.2722110748291	448.7772216796875	750.106201171875	29.40643310546875	517.12548828125	33.48867416381836	-197.7062683105469	536.8877563476562	368.5020751953125	-46.93080139160156	645.9291381835938	37.30910873413086	-23.36806488037109	660.7428588867188	32.44856262207031	-93.63166046142578	539.8685913085938	35.47333145141602	-86.08592987060547	542.3707885742188	31.58572959899902	-278.7188415527344	
